OFF
54 104 0
1.645685 0.5 0.5 
1.5 0.3904521 0.5 
1.5 0.5 0.7441788 
1.5 0.5 0.3904521 
2 1 0.6360626 
2 0.7862321 1 
2.200686 1 1 
1.617797 1 0.5 
1.5 0.9064467 1 
1.5 1 0.4641415 
2 1 1.232053 
1.506496 1 1.5 
1.5 0.9884365 1.5 
1.5 1 1.505044 
1.325353 0.5 1 
1 0.3230825 1 
1 0.5 1.204115 
0.8230825 0.5 1 
1 0.6897705 1 
1.464865 1 1 
1.48753 1 1.5 
1.295986 0.5 0.5 
1 0.5 0.7131951 
1 1 0.250774 
1 0.6452841 0.5 
1 1 0.7630551 
0.750774 1 0.5 
2 1.5 0.2891013 
2 1.127871 0.5 
2.210899 1.5 0.5 
2 1.5 0.8751037 
2 1.367035 1 
1.819427 1.5 1 
1.5 1.5 0.7710702 
1.5 1.065917 0.5 
1.705435 1.5 0.5 
2 1.710899 0.5 
1.5 1.65027 1 
2 1.5 1.437308 
2 1.478479 1.5 
2.016825 1.5 1.5 
2 1.5 1.516825 
1.5 1.5 1.698548 
2 1.516825 1.5 
1.5 1.698548 1.5 
1.091159 1.5 1.5 
1 1.5 1.389192 
1 1.317218 1 
0.8298573 1.5 1 
1 1.670143 1 
1 1.5 0.4116313 
1.148373 1.5 0.5 
0.9116313 1.5 0.5 
1 1.588369 0.5 
3 0 1 2
3 3 1 0
3 4 5 6
3 7 4 8
3 4 5 8
3 0 7 2
3 7 8 2
3 0 9 3
3 9 0 7
3 6 5 10
3 11 12 13
3 10 5 11
3 5 8 12
3 11 5 12
3 14 15 16
3 15 17 16
3 18 14 16
3 19 12 8
3 12 19 20
3 12 20 13
3 17 18 16
3 21 1 3
3 21 15 1
3 15 21 22
3 1 15 2
3 2 15 14
3 17 15 22
3 3 9 23
3 3 23 24
3 3 24 21
3 24 21 22
3 2 8 19
3 14 2 25
3 2 19 25
3 14 25 18
3 24 26 22
3 26 25 18
3 22 26 17
3 26 18 17
3 26 24 23
3 27 28 29
3 29 28 6
3 6 28 4
3 29 6 30
3 30 6 31
3 32 31 30
3 7 33 4
3 4 33 28
3 33 7 34
3 28 33 35
3 7 34 9
3 35 28 27
3 29 36 27
3 36 29 30
3 35 36 33
3 36 30 32
3 33 36 37
3 36 32 37
3 35 27 36
3 31 6 10
3 38 39 40
3 40 39 41
3 42 41 13
3 13 41 11
3 11 41 39
3 31 32 10
3 32 38 39
3 10 32 11
3 32 39 11
3 40 43 38
3 43 40 41
3 42 44 41
3 41 44 43
3 43 44 37
3 43 37 32
3 43 32 38
3 19 20 45
3 19 45 46
3 19 46 47
3 13 20 42
3 42 20 45
3 47 48 46
3 46 49 45
3 45 49 44
3 44 49 37
3 45 44 42
3 48 49 46
3 50 23 9
3 50 9 34
3 50 34 51
3 34 51 33
3 19 47 25
3 25 26 47
3 47 26 48
3 48 26 52
3 26 23 50
3 26 50 52
3 51 53 50
3 37 49 53
3 37 53 51
3 37 51 33
3 52 53 49
3 52 49 48
3 52 50 53
