OFF
42 74 0
1.744733 0.5 0.5 
1.5 0.2704102 0.5 
1.5 0.5 0.8666985 
1.5 0.5 0.2704102 
1.5 0.8408154 0.5 
1.5 1 0.9947062 
1.5 0.9932187 1 
1.503951 1 1 
2 1 1.322717 
2 0.8353 1.5 
2.113217 1 1.5 
2 1 1.613217 
1.5 0.6628538 1.5 
1.5 1 1.712557 
1.329401 0.5 1 
1 0.3132951 1 
1 0.5 1.210909 
0.8132951 0.5 1 
1 0.8512425 1.5 
1 1 1.164357 
1.487781 1 1 
1 0.8893282 1 
1 1 1.628515 
0.8714848 1 1.5 
1 0.3658036 0.5 
1 0.5 0.3658036 
0.8658036 0.5 0.5 
1 0.8223195 0.5 
1.704392 1.5 0.5 
1.5 1.188504 0.5 
1.5 1.5 0.7660861 
1.5 1.003656 1 
1.5 1.5 0.3020586 
1.5 1.697941 0.5 
2 1.222641 1.5 
1.5 1.37567 1.5 
1 1.138435 1.5 
1 1.125802 0.5 
1 1.5 0.3122012 
1 1.5 0.7417886 
0.8122011 1.5 0.5 
1 1.687799 0.5 
3 0 1 2
3 3 1 0
3 4 0 2
3 5 6 7
3 0 4 3
3 8 9 10
3 10 9 11
3 11 12 13
3 12 11 9
3 7 6 8
3 6 12 9
3 8 6 9
3 14 15 16
3 15 17 16
3 18 19 12
3 20 6 12
3 19 20 12
3 14 21 16
3 13 18 22
3 18 13 12
3 18 23 22
3 17 21 19
3 16 17 18
3 17 19 23
3 18 17 23
3 24 3 25
3 3 24 1
3 2 1 14
3 1 24 15
3 14 1 15
3 26 15 24
3 15 26 17
3 26 24 25
3 3 27 25
3 27 3 4
3 4 2 14
3 27 4 21
3 4 14 21
3 20 6 5
3 26 27 21
3 26 21 17
3 26 25 27
3 28 29 30
3 7 31 5
3 32 29 28
3 33 28 30
3 28 33 32
3 10 34 8
3 34 10 11
3 13 35 11
3 11 35 34
3 34 35 31
3 34 31 7
3 34 7 8
3 31 35 36
3 31 36 19
3 31 19 20
3 22 36 13
3 13 36 35
3 23 36 22
3 23 19 36
3 37 32 38
3 32 37 29
3 30 37 39
3 37 30 29
3 20 5 31
3 37 40 39
3 40 37 38
3 32 41 38
3 41 32 33
3 39 41 30
3 30 41 33
3 40 41 39
3 40 38 41
