OFF
43 78 0
2 1 1.322717 
2 0.8353 1.5 
2.113217 1 1.5 
2 1 1.613217 
2 1.222641 1.5 
1.5 0.5 0.2704102 
1.5 0.2704102 0.5 
1.744733 0.5 0.5 
1.5 0.5 0.8666985 
1.5 0.8408154 0.5 
1.5 1 0.9947062 
1.5 0.9932187 1 
1.503951 1 1 
1.5 0.6628538 1.5 
1.5 1 1.712557 
1.5 1.5 0.3020586 
1.5 1.188504 0.5 
1.704392 1.5 0.5 
1.5 1.5 0.7660861 
1.5 1.003656 1 
1.5 1.37567 1.5 
1.5 1.697941 0.5 
1 0.3658036 0.5 
1 0.5 0.3658036 
1.329401 0.5 1 
1 0.3132951 1 
1 0.5 1.210909 
1 0.8223195 0.5 
1 0.8893282 1 
1.487781 1 1 
1.25 0.75 1.25 
1 1 1.164357 
1 0.8512425 1.5 
1 1 1.628515 
1 1.125802 0.5 
1 1.5 0.3122012 
1 1.5 0.7417886 
1 1.138435 1.5 
1 1.687799 0.5 
0.8658036 0.5 0.5 
0.8132951 0.5 1 
0.8714848 1 1.5 
0.8122011 1.5 0.5 
3 0 1 2
3 2 1 3
3 2 4 0
3 4 2 3
3 5 6 7
3 7 6 8
3 7 9 5
3 9 7 8
3 10 11 12
3 12 11 0
3 11 13 1
3 0 11 1
3 3 13 14
3 13 3 1
3 15 16 17
3 17 16 18
3 12 19 10
3 4 20 19
3 4 19 12
3 4 12 0
3 14 20 3
3 3 20 4
3 17 21 15
3 21 17 18
3 22 5 23
3 5 22 6
3 8 6 24
3 6 22 25
3 24 6 25
3 24 25 26
3 5 27 23
3 27 5 9
3 9 8 24
3 27 9 28
3 9 24 28
3 29 11 10
3 24 26 30
3 28 31 30
3 32 26 30
3 29 31 30
3 11 13 30
3 24 28 30
3 29 11 30
3 32 13 30
3 14 32 33
3 32 14 13
3 34 15 35
3 15 34 16
3 18 34 36
3 34 18 16
3 29 10 19
3 19 20 37
3 19 37 31
3 19 31 29
3 33 37 14
3 14 37 20
3 15 38 35
3 38 15 21
3 36 38 18
3 18 38 21
3 39 22 23
3 39 25 22
3 25 39 40
3 25 40 26
3 39 23 27
3 39 27 28
3 39 28 40
3 40 28 31
3 26 40 32
3 40 31 41
3 32 40 41
3 32 41 33
3 42 34 35
3 34 42 36
3 41 31 37
3 41 37 33
3 42 35 38
3 42 38 36
