OFF
27 12 0
2 4.370227 0.5 
2 -inf 0 
-1.870227 0.5 0.5 
inf 0.5 0 
2.5 -inf 1.5 
1.262644 0.5 1.5 
2.5 0.5 -inf 
1.888543 0.5 1.5 
1.329401 0.5 1 
1.5 0.7778383 1.5 
1.5 0.7232146 1 
1 0.3658036 0.5 
1.5 0.2704102 0.5 
1.5 0 -inf 
1 0 -inf 
inf 1.5 0 
2 1.5 9.570847 
1.429702 1 1 
2 0.3931551 1 
2 1 1.322717 
1 0.8209204 1 
1 1 1.164357 
1.5 1 0.9971141 
1.5 1.003656 1 
1.5 1 0.828586 
0.4796792 1 0.5 
1.5 1.188504 0.5 
3 0 1 2
3 2 1 3
3 4 5 6
3 7 8 9
3 9 8 10
3 11 12 13
3 11 13 14
3 1 15 16
3 17 18 19
3 20 21 22
3 20 22 23
3 24 25 26
